<?xml version="1.0"?>
<svg width="7917" height="7917" xmlns="http://www.w3.org/2000/svg" xmlns:svg="http://www.w3.org/2000/svg" clip-rule="evenodd" fill-rule="evenodd" stroke-linejoin="round" version="1.1" xml:space="preserve">
 <defs>
  <linearGradient id="_Linear1" x1="0.17" x2="0.83" y1="-0.07" y2="1.07">
   <stop offset="0" stop-color="rgb(35,104,196)"/>
   <stop offset="0.5" stop-color="rgb(26,93,190)"/>
   <stop offset="1" stop-color="rgb(17,70,172)"/>
  </linearGradient>
 </defs>
 <g class="layer">
  <title>Layer 1</title>
  <path d="m684.08,35.48l6543.23,0c361.29,0 654.18,292.87 654.18,654.18l0,6543.23c0,361.31 -292.89,654.2 -654.18,654.2l-6543.23,0c-361.29,0 -654.18,-292.89 -654.18,-654.2l0,-6543.23c0,-361.31 292.89,-654.18 654.18,-654.18z" fill="url(#_Linear1)" fill-rule="nonzero" id="svg_9" transform="matrix(1 0 0 1 0 0)"/>
  <g id="svg_10" transform="translate(5.88235 0) translate(-5.88235 0) translate(5.88235 0) translate(0 -5.88235) translate(0 5.88235) translate(0 5.88235) translate(0 5.88235) translate(0 5.88235) translate(0 5.88235) translate(0 5.88235) translate(0 5.88235) translate(0 5.88235) translate(0 5.88235) translate(0 5.88235) translate(0 5.88235) translate(5.88235 0) translate(5.88235 0) translate(5.88235 0) translate(5.88235 0) translate(5.88235 0) translate(5.88235 0) translate(5.88235 0) translate(5.88235 0) translate(164.706 41.1765) translate(970.424 1662.88) matrix(12.9151 0 0 12.9151 -1234.32 -4265.11)">
   <path d="m96,672l0,-341.33l85.33,0l128,128l128,-128l85.34,0l0,341.33l-85.34,0l0,-220.59l-128,128l-128,-128l0,220.59l-85.33,0" fill="white" fill-rule="nonzero" id="svg_11"/>
  </g>
 </g>
</svg>